# xmcd
#
# Track frame offsets:
#	150
#	16643
#	31785
#	47001
#	62576
#	77559
#	92302
#	108365
#	122474
#	136002
#	152421
#	167483
#	181910
#	196458
#	211909
#	225998
#
# Disc length: 3206 seconds
#
# Revision: 0
# Processed by: cddbd v1.5.2PL0 Copyright (c) Steve Scherf et al.
# Submitted via: EasyCDDAExtractor 16.0.6.1
#
DISCID=a90c8410
DTITLE=Συλλογικός δίσκος - Ελληνικό Πάσχα 6
DYEAR=2012
DGENRE=Παραδοσιακή
TTITLE0=Κολλητήρη Σοφία - Ιτιά παραπονιάρα [Κώστας Κοντογιώργος]
TTITLE1=Λύδια Γιώτα - Μαντήλι καλαματιανό [σιασκ. Γ. Κόρος-Ευ. Σκουρτανιώτης]
TTITLE2=Καζαντζίδης Στέλιος - Αγκινάρα με τ' αγκάθια [παραδοσιακό]
TTITLE3=Πανούτσος Χρήστος - Άσπρη βαμβακιά [Χρ. Πανούτσος]
TTITLE4=Παπασιδέρης Γιώργος - Κόρη που πας στον ποταμό [Γ. Παπασιδέρης-Σπ. Περ
TTITLE4=ιστέρης]
TTITLE5=Μηττάκη Γεωργία - Πάει η στάμνα [Γ. Μηττάκη]
TTITLE6=Μηττάκη Γεωργία - Με γέλασαν μιά χαραυγή [Σπ. Περιστέρης-Γ. Μηττάκη]
TTITLE7=Άνευ ερμηνευτού - Ο πλάτανος [παραδοσιακό]
TTITLE8=Περπινιάδης Βαγγέλης - Παπάκι [διασκ. Γ. Παπασιδέρης]
TTITLE9=Μηττάκη Γεωργία - Ένας λεβέντης διάβαινε [Γ. Μηττάκη, ορχ. Γ. Ανεστόπο
TTITLE9=υλου]
TTITLE10=Αλεξανδροπούλου Αθανασία - Απόψε η Πούλια μάλωνε [παραδοσιακό]
TTITLE11=Μηττάκη Γεωργία - Καραγκούνα πάει να πλύνει [Ζαχ. Κασιμάτης]
TTITLE12=Μηττάκη Γεωργία - Ρήνα [Σπ. Περιστέρης-Γ. Μηττάκη]
TTITLE13=Πανούτσος Χρήστος - Νά 'μουν ελιά στα Σάλωνα [Χρ. Πανούτσος]
TTITLE14=Μηττάκη Γεωργία - Στην βρύση, στην κρυόβρυση [Γ. Μηττάκη, ορχ. Γ. Ανε
TTITLE14=στόπουλου]
TTITLE15=Άνευ ερμηνευτού - Ο Ήλιος [παραδ., ορχ. Νίκου Καρακώστα]
EXTD=
EXTT0=
EXTT1=
EXTT2=
EXTT3=
EXTT4=
EXTT5=
EXTT6=
EXTT7=
EXTT8=
EXTT9=
EXTT10=
EXTT11=
EXTT12=
EXTT13=
EXTT14=
EXTT15=
PLAYORDER=
